<svg xmlns="http://www.w3.org/2000/svg" viewBox="0 0 512 512">
  <defs>
    <linearGradient id="grad1" x1="0%" y1="100%" x2="100%" y2="0%">
      <stop offset="0%" style="stop-color:#0f172a;stop-opacity:1" />
      <stop offset="100%" style="stop-color:#020617;stop-opacity:1" />
    </linearGradient>
  </defs>
  <rect width="512" height="512" rx="120" fill="url(#grad1)"/>
  <path d="M368,256c0,79.5-64.5,144-144,144H160V112h64c44.2,0,84,19.6,111.5,50.5C356.7,189.6,368,221.4,368,256z M224,176v160 h0c44.2,0,80-35.8,80-80S268.2,176,224,176L224,176z" fill="#ffffff"/>
  <path d="M365.3,142.3l-89.4,89.4c-6.2,6.2-16.4,6.2-22.6,0l0,0c-6.2-6.2-6.2-16.4,0-22.6l89.4-89.4C349.9,112.5,358.7,112.5,365.3,142.3z" fill="#38bdf8"/>
  <circle cx="354" cy="131" r="24" fill="#38bdf8"/>
</svg>